<?xml version="1.0" standalone="no"?>
<!DOCTYPE svg PUBLIC "-//W3C//DTD SVG 20010904//EN"
 "http://www.w3.org/TR/2001/REC-SVG-20010904/DTD/svg10.dtd">
<svg version="1.0" xmlns="http://www.w3.org/2000/svg"
 width="152.000000pt" height="152.000000pt" viewBox="0 0 152.000000 152.000000"
 preserveAspectRatio="xMidYMid meet">
<metadata>
Created by potrace 1.11, written by Peter Selinger 2001-2013
</metadata>
<g transform="translate(0.000000,152.000000) scale(0.100000,-0.100000)"
fill="#000000" stroke="none">
<path d="M790 936 c0 -55 3 -64 20 -69 11 -3 21 -13 21 -24 2 -23 18 46 26
110 l6 47 -37 0 -36 0 0 -64z"/>
<path d="M680 726 c0 -58 3 -67 26 -85 36 -28 86 -27 120 2 23 20 28 34 32 85
l4 62 -35 0 -36 0 -3 -52 c-3 -45 -6 -53 -23 -53 -17 0 -20 8 -23 53 -3 50 -4
52 -33 52 l-29 0 0 -64z"/>
</g>
</svg>
